<?xml version="1.0" standalone="no"?>
<!DOCTYPE svg PUBLIC "-//W3C//DTD SVG 20010904//EN"
 "http://www.w3.org/TR/2001/REC-SVG-20010904/DTD/svg10.dtd">
<svg version="1.0" xmlns="http://www.w3.org/2000/svg"
 width="512.000000pt" height="512.000000pt" viewBox="0 0 512.000000 512.000000"
 preserveAspectRatio="xMidYMid meet">
<metadata>
Created by potrace 1.14, written by Peter Selinger 2001-2017
</metadata>
<g transform="translate(0.000000,512.000000) scale(0.100000,-0.100000)"
fill="#000000" stroke="none">
<path d="M2465 4669 c-36 -19 -378 -212 -595 -334 -47 -26 -103 -58 -125 -70
-33 -19 -330 -185 -770 -432 -49 -28 -106 -60 -125 -71 -19 -12 -54 -31 -78
-44 -56 -29 -108 -87 -121 -135 -8 -26 -11 -358 -11 -1031 0 -869 2 -998 16
-1030 25 -62 58 -90 184 -159 30 -16 129 -72 220 -123 91 -51 185 -104 210
-118 25 -14 149 -84 275 -155 127 -72 248 -140 270 -152 22 -12 63 -34 90 -50
585 -332 577 -328 640 -333 63 -4 86 3 170 51 22 13 67 38 100 57 33 18 161
90 285 160 124 70 246 139 273 153 909 510 1015 571 1049 606 20 21 41 56 47
77 15 54 15 1994 0 2048 -19 70 -68 106 -399 292 -173 97 -328 184 -345 194
-16 9 -57 32 -90 50 -33 18 -271 152 -530 298 -463 262 -471 266 -535 269 -53
3 -72 0 -105 -18z m-410 -1329 c208 -48 331 -201 339 -423 5 -157 -72 -322
-259 -547 -76 -92 -266 -287 -353 -363 l-42 -37 350 0 c192 0 350 -3 351 -7 1
-11 1 -226 0 -238 -1 -9 -755 -10 -1026 -2 l-70 2 1 108 1 108 121 122 c66 67
131 133 142 147 12 14 43 48 69 75 190 202 367 444 392 539 13 48 5 124 -19
173 -56 118 -222 139 -328 41 -51 -47 -68 -78 -84 -151 l-12 -53 -117 -2 c-64
-2 -135 -5 -158 -7 -39 -3 -43 -1 -43 19 0 43 39 174 68 233 74 145 214 245
382 271 72 11 232 7 295 -8z m1277 -5 c141 -41 277 -152 337 -273 60 -120 64
-151 64 -537 0 -388 -5 -423 -65 -539 -18 -33 -62 -91 -98 -127 -170 -172
-419 -209 -645 -96 -77 38 -190 152 -228 229 -55 115 -60 153 -61 513 -1 365
5 428 54 532 82 176 228 282 435 316 42 7 158 -3 207 -18z"/>
<path d="M3104 3033 c-52 -17 -101 -65 -127 -123 -19 -42 -20 -66 -21 -385 0
-340 0 -340 24 -389 42 -84 113 -127 205 -127 90 0 161 47 208 136 19 38 20
56 20 375 0 246 -3 345 -13 374 -16 49 -73 113 -119 133 -48 21 -127 24 -177
6z"/>
</g>
</svg>
